<?xml version="1.0" standalone="no"?>
<!DOCTYPE svg PUBLIC "-//W3C//DTD SVG 20010904//EN"
 "http://www.w3.org/TR/2001/REC-SVG-20010904/DTD/svg10.dtd">
<svg version="1.0" xmlns="http://www.w3.org/2000/svg"
 width="636.000000pt" height="636.000000pt" viewBox="0 0 636.000000 636.000000"
 preserveAspectRatio="xMidYMid meet">
<metadata>
Created by potrace 1.11, written by Peter Selinger 2001-2013
</metadata>
<g transform="translate(0.000000,636.000000) scale(0.100000,-0.100000)"
fill="#000000" stroke="none">
<path d="M128 6326 c-4 -43 8 -155 27 -251 78 -384 333 -728 689 -925 114 -63
299 -127 419 -144 20 -3 54 -9 75 -12 20 -3 566 -7 1212 -9 646 -2 1186 -6
1200 -8 14 -3 52 -8 85 -12 400 -43 613 -188 691 -472 25 -90 30 -339 10 -438
-56 -274 -202 -418 -502 -494 -73 -19 -95 -23 -171 -35 -166 -26 -268 -28
-1331 -29 l-1052 0 2 -1746 3 -1746 25 1 c485 13 921 224 1228 592 136 164
248 377 305 582 53 187 59 243 63 589 2 178 5 325 6 326 2 2 262 5 578 8 316
3 598 8 625 11 28 3 86 8 130 11 87 7 156 14 194 20 13 2 45 7 70 11 139 19
400 98 522 159 100 49 235 130 259 155 3 3 25 21 50 40 124 96 274 262 363
402 157 247 282 629 312 948 3 36 8 81 11 100 5 38 5 409 -1 475 -3 43 -16
151 -20 169 -1 6 -5 34 -9 61 -13 86 -65 286 -102 390 -59 167 -190 413 -276
520 -282 352 -535 526 -940 649 -65 20 -146 40 -180 46 -35 5 -72 12 -84 14
-12 2 -45 7 -75 11 -30 3 -65 8 -79 10 -14 2 -59 7 -100 10 -41 3 -95 8 -120
10 -50 5 -190 13 -350 22 -58 3 -927 6 -1932 7 l-1827 3 -3 -31z"/>
</g>
</svg>
